<?xml version="1.0" encoding="UTF-8" standalone="no"?>
<svg
   class="ionicon"
   viewBox="0 0 512 512"
   version="1.1"
   id="svg6891"
   sodipodi:docname="cloudy.svg"
   inkscape:version="1.1 (c68e22c387, 2021-05-23)"
   xmlns:inkscape="http://www.inkscape.org/namespaces/inkscape"
   xmlns:sodipodi="http://sodipodi.sourceforge.net/DTD/sodipodi-0.dtd"
   xmlns:xlink="http://www.w3.org/1999/xlink"
   xmlns="http://www.w3.org/2000/svg"
   xmlns:svg="http://www.w3.org/2000/svg">
  <defs
     id="defs6895">
    <linearGradient
       id="linearGradient9025"
       inkscape:swatch="solid">
      <stop
         style="stop-color:#ffffff;stop-opacity:1;"
         offset="0"
         id="stop9023" />
    </linearGradient>
    <radialGradient
       inkscape:collect="always"
       xlink:href="#linearGradient9025"
       id="radialGradient9033"
       cx="256"
       cy="255.99918"
       fx="256"
       fy="255.99918"
       r="256"
       gradientTransform="matrix(1,0,0,0.6875032,0,79.998924)"
       gradientUnits="userSpaceOnUse" />
  </defs>
  <sodipodi:namedview
     id="namedview6893"
     pagecolor="#ffffff"
     bordercolor="#666666"
     borderopacity="1.0"
     inkscape:pageshadow="2"
     inkscape:pageopacity="0.0"
     inkscape:pagecheckerboard="0"
     showgrid="false"
     inkscape:zoom="1.5449219"
     inkscape:cx="255.67636"
     inkscape:cy="256"
     inkscape:window-width="1920"
     inkscape:window-height="1051"
     inkscape:window-x="-9"
     inkscape:window-y="-9"
     inkscape:window-maximized="1"
     inkscape:current-layer="svg6891" />
  <title
     id="title6887">Cloudy</title>
  <path
     d="M376 432H116c-32.37 0-60.23-8.57-80.59-24.77C12.24 388.78 0 361.39 0 328c0-57.57 42-90.58 87.56-100.75a16 16 0 0012.12-12.39c7.68-36.68 24.45-68.15 49.18-92A153.57 153.57 0 01256 80c35.5 0 68.24 11.69 94.68 33.8a156.24 156.24 0 0142.05 56 16 16 0 0011.37 9.16c27 5.61 51.07 17.33 69.18 33.85C498.61 235.88 512 267.42 512 304c0 36-14.38 68.88-40.49 92.59C446.36 419.43 412.44 432 376 432z"
     id="path6889"
     style="fill:url(#radialGradient9033);fill-opacity:1" />
</svg>
