<?xml version="1.0" encoding="UTF-8" standalone="no"?>
<svg
   width="192"
   height="192"
   fill="#000000"
   viewBox="0 0 256 256"
   version="1.1"
   id="svg2218"
   sodipodi:docname="sparkle-fill.svg"
   inkscape:version="1.1 (c68e22c387, 2021-05-23)"
   xmlns:inkscape="http://www.inkscape.org/namespaces/inkscape"
   xmlns:sodipodi="http://sodipodi.sourceforge.net/DTD/sodipodi-0.dtd"
   xmlns="http://www.w3.org/2000/svg"
   xmlns:svg="http://www.w3.org/2000/svg">
  <defs
     id="defs2222" />
  <sodipodi:namedview
     id="namedview2220"
     pagecolor="#ffffff"
     bordercolor="#666666"
     borderopacity="1.0"
     inkscape:pageshadow="2"
     inkscape:pageopacity="0.0"
     inkscape:pagecheckerboard="0"
     showgrid="false"
     inkscape:zoom="4.1197917"
     inkscape:cx="96"
     inkscape:cy="96"
     inkscape:window-width="1920"
     inkscape:window-height="1051"
     inkscape:window-x="-9"
     inkscape:window-y="-9"
     inkscape:window-maximized="1"
     inkscape:current-layer="svg2218" />
  <rect
     width="256"
     height="256"
     fill="none"
     id="rect2214" />
  <path
     d="M208.9,144a15.8,15.8,0,0,1-10.5,15l-52.2,19.2L127,230.4a16,16,0,0,1-30,0L77.8,178.2,25.6,159a16,16,0,0,1,0-30l52.2-19.2L97,57.6a16,16,0,0,1,30,0l19.2,52.2L198.4,129A15.8,15.8,0,0,1,208.9,144ZM152,48h16V64a8,8,0,0,0,16,0V48h16a8,8,0,0,0,0-16H184V16a8,8,0,0,0-16,0V32H152a8,8,0,0,0,0,16Zm88,32h-8V72a8,8,0,0,0-16,0v8h-8a8,8,0,0,0,0,16h8v8a8,8,0,0,0,16,0V96h8a8,8,0,0,0,0-16Z"
     id="path2216"
     style="fill:#ffb100;fill-opacity:1" />
</svg>
